<?xml version="1.0"?>


<svg version="1.1" id="Layer_1" xmlns="http://www.w3.org/2000/svg" xmlns:xlink="http://www.w3.org/1999/xlink" x="0px" y="0px" width="1280px" height="220px" viewBox="0 530.195 1280 220" enable-background="new 0 530.195 1280 220" xml:space="preserve">
<g>
&#x9;<path fill="#0E4877" d="M734.374,635.776l-3.421,8.09c-0.387,1.001-0.67,1.938-0.838,2.811c-0.172,0.872-0.254,1.635-0.254,2.283&#xA;&#x9;&#x9;c0,1.899,0.85,3.186,2.549,3.857c1.699,0.675,3.934,1.013,6.699,1.013v2.621h-25.195v-2.621c2.767-0.3,5.12-1.56,7.063-3.785&#xA;&#x9;&#x9;c1.943-2.22,3.811-5.504,5.608-9.85l24.902-59.25h1.818l26.361,62.621c1.65,3.697,3.299,6.33,4.951,7.904&#xA;&#x9;&#x9;c1.65,1.573,3.497,2.359,5.533,2.359v2.621H752.87v-2.621c3.202,0,5.423-0.25,6.661-0.751c1.236-0.5,1.856-1.32,1.856-2.473&#xA;&#x9;&#x9;c0-0.451-0.062-0.925-0.184-1.423c-0.122-0.497-0.375-1.148-0.762-1.945l-4.733-11.462H734.374z M745.516,608.736l-9.103,21.646&#xA;&#x9;&#x9;h17.332L745.516,608.736z"></path>
&#x9;<path fill="#0E4877" d="M45.492,617.076v24.11c0,4.704,0.276,7.663,0.835,8.882c0.556,1.219,1.545,2.19,2.964,2.918&#xA;&#x9;&#x9;c1.42,0.728,4.023,1.091,7.814,1.091v2.371h-42.56v-2.371c3.869,0,6.496-0.375,7.875-1.123c1.379-0.747,2.348-1.722,2.903-2.918&#xA;&#x9;&#x9;c0.556-1.195,0.835-4.146,0.835-8.85v-56.43c0-4.704-0.279-7.663-0.835-8.882s-1.533-2.19-2.933-2.918&#xA;&#x9;&#x9;c-1.402-0.728-4.014-1.091-7.846-1.091v-2.371h36.506c12.023,0,20.651,2.223,25.882,6.668c5.231,4.448,7.846,10.004,7.846,16.672&#xA;&#x9;&#x9;c0,5.644-1.69,10.476-5.065,14.493c-3.377,4.018-8.029,6.755-13.96,8.209C61.76,616.562,55.005,617.076,45.492,617.076z&#xA;&#x9;&#x9; M45.492,574.496v37.576c1.359,0.088,2.389,0.129,3.09,0.129c5.024,0,8.896-1.551,11.613-4.649&#xA;&#x9;&#x9;c2.717-3.098,4.076-7.897,4.076-14.396c0-6.456-1.358-11.18-4.076-14.174c-2.717-2.99-6.775-4.488-12.168-4.488h-2.534V574.496z"></path>
&#x9;<path fill="#0E4877" d="M133.085,621.317v22.697c0,2.098,0.137,3.782,0.413,5.056c0.273,1.274,0.739,2.261,1.396,2.959&#xA;&#x9;&#x9;c0.654,0.698,1.533,1.172,2.633,1.422c1.1,0.251,2.476,0.376,4.125,0.376v2.621h-33.006v-2.621c2.58,0,4.421-0.698,5.521-2.098&#xA;&#x9;&#x9;c1.1-1.399,1.649-3.971,1.649-7.715V595.4c0-1.946-0.105-3.558-0.317-4.832c-0.212-1.273-0.646-2.283-1.3-3.034&#xA;&#x9;&#x9;c-0.657-0.747-1.577-1.285-2.761-1.611c-1.184-0.323-2.729-0.485-4.634-0.485v-2.621h34.851v2.621c-1.905,0-3.418,0.2-4.538,0.599&#xA;&#x9;&#x9;c-1.123,0.401-1.99,1.013-2.601,1.836c-0.614,0.823-1.007,1.861-1.175,3.109c-0.169,1.248-0.253,2.724-0.253,4.419v20.376h24.567&#xA;&#x9;&#x9;V595.4c0-1.946-0.104-3.569-0.317-4.869c-0.212-1.298-0.625-2.322-1.237-3.072c-0.614-0.748-1.46-1.274-2.54-1.574&#xA;&#x9;&#x9;c-1.079-0.299-2.487-0.447-4.221-0.447v-2.621h34.717v2.621c-2.03,0-3.639,0.162-4.823,0.485c-1.184,0.326-2.086,0.888-2.697,1.688&#xA;&#x9;&#x9;c-0.614,0.8-1.006,1.836-1.175,3.106c-0.168,1.274-0.253,2.834-0.253,4.681v48.617c0,2.146,0.16,3.869,0.477,5.169&#xA;&#x9;&#x9;c0.317,1.298,0.814,2.287,1.492,2.959c0.675,0.675,1.533,1.123,2.572,1.347c1.036,0.225,2.295,0.338,3.776,0.338v2.621h-34.091&#xA;&#x9;&#x9;v-2.621c1.862,0,3.342-0.163,4.442-0.489c1.1-0.325,1.938-0.86,2.508-1.608c0.573-0.751,0.942-1.748,1.111-2.996&#xA;&#x9;&#x9;c0.168-1.248,0.253-2.822,0.253-4.719v-22.697H133.085z"></path>
&#x9;<path fill="#0E4877" d="M239.796,656.448h-34.912v-2.621c1.693,0,3.098-0.113,4.221-0.338c1.12-0.224,2.022-0.687,2.7-1.385&#xA;&#x9;&#x9;c0.675-0.698,1.164-1.698,1.46-2.996c0.296-1.298,0.445-2.996,0.445-5.094V595.4c0-2.245-0.16-4.02-0.477-5.317&#xA;&#x9;&#x9;c-0.317-1.298-0.835-2.295-1.556-2.996c-0.722-0.698-1.641-1.149-2.761-1.348c-1.123-0.197-2.467-0.299-4.032-0.299v-2.621h34.912&#xA;&#x9;&#x9;v2.621c-1.649,0-3.037,0.102-4.157,0.299c-1.12,0.201-2.03,0.649-2.729,1.348c-0.698,0.701-1.196,1.698-1.493,2.996&#xA;&#x9;&#x9;c-0.296,1.3-0.445,3.072-0.445,5.317v48.614c0,2.098,0.128,3.782,0.381,5.056c0.253,1.274,0.719,2.261,1.396,2.959&#xA;&#x9;&#x9;c0.675,0.698,1.588,1.172,2.729,1.422c1.143,0.251,2.58,0.376,4.317,0.376V656.448z"></path>
&#x9;<path fill="#0E4877" d="M313.905,656.448h-61.96v-2.621c1.777,0,3.27-0.163,4.477-0.489c1.204-0.325,2.159-0.872,2.856-1.649&#xA;&#x9;&#x9;c0.698-0.773,1.196-1.798,1.493-3.071c0.296-1.274,0.445-2.857,0.445-4.757V595.4c0-2.298-0.18-4.107-0.541-5.431&#xA;&#x9;&#x9;c-0.36-1.321-0.919-2.321-1.681-2.997c-0.762-0.675-1.737-1.097-2.921-1.273c-1.184-0.175-2.604-0.262-4.253-0.262v-2.621h37.833&#xA;&#x9;&#x9;v2.621c-2.243,0-4.084,0.102-5.521,0.299c-1.44,0.201-2.58,0.638-3.427,1.312s-1.429,1.673-1.746,2.996&#xA;&#x9;&#x9;c-0.317,1.324-0.477,3.11-0.477,5.355v49.513c0,2.397,0.454,3.994,1.364,4.795c0.911,0.8,2.444,1.198,4.603,1.198h8.576&#xA;&#x9;&#x9;c3.215,0,5.987-0.55,8.317-1.649c2.327-1.097,4.326-2.595,5.999-4.495c1.673-1.896,3.046-4.119,4.128-6.664&#xA;&#x9;&#x9;c1.079-2.546,1.978-5.269,2.696-8.166h2.476L313.905,656.448z"></path>
&#x9;<path fill="#0E4877" d="M440.605,656.448H405.69v-2.621c1.692,0,3.101-0.113,4.221-0.338c1.12-0.224,2.022-0.687,2.7-1.385&#xA;&#x9;&#x9;s1.163-1.698,1.46-2.996s0.445-2.996,0.445-5.094V595.4c0-2.245-0.16-4.02-0.478-5.317c-0.316-1.298-0.835-2.295-1.557-2.996&#xA;&#x9;&#x9;c-0.718-0.698-1.641-1.149-2.76-1.348c-1.123-0.197-2.468-0.299-4.032-0.299v-2.621h34.915v2.621c-1.652,0-3.037,0.102-4.16,0.299&#xA;&#x9;&#x9;c-1.12,0.201-2.031,0.649-2.729,1.348c-0.698,0.701-1.196,1.698-1.493,2.996c-0.296,1.3-0.444,3.072-0.444,5.317v48.614&#xA;&#x9;&#x9;c0,2.098,0.128,3.782,0.381,5.056c0.253,1.274,0.719,2.261,1.396,2.959s1.585,1.172,2.731,1.422&#xA;&#x9;&#x9;c1.141,0.251,2.58,0.376,4.317,0.376V656.448L440.605,656.448z"></path>
&#x9;<path fill="#0E4877" d="M479.078,643.866c0,1.949,0.137,3.558,0.413,4.832c0.273,1.274,0.762,2.286,1.46,3.034&#xA;&#x9;&#x9;s1.641,1.274,2.825,1.574c1.184,0.299,2.664,0.474,4.441,0.523v2.621h-35.104v-2.621c1.649,0,3.034-0.137,4.157-0.413&#xA;&#x9;&#x9;c1.12-0.273,2.01-0.786,2.664-1.536c0.655-0.748,1.132-1.771,1.429-3.072c0.297-1.297,0.445-2.946,0.445-4.945v-49.513&#xA;&#x9;&#x9;c0-3.395-0.689-5.73-2.062-7.005s-3.691-1.911-6.95-1.911v-2.621h34.977c3.302,0,6.484,0.337,9.553,1.009&#xA;&#x9;&#x9;c3.069,0.675,5.786,1.798,8.157,3.372c2.371,1.573,4.262,3.634,5.682,6.179c1.42,2.546,2.127,5.667,2.127,9.364&#xA;&#x9;&#x9;c0,3.046-0.521,5.88-1.557,8.501c-1.039,2.621-2.656,4.896-4.855,6.815c-2.199,1.923-4.983,3.433-8.346,4.532&#xA;&#x9;&#x9;c-3.366,1.1-7.375,1.646-12.029,1.646h-7.427V643.866L479.078,643.866z M479.078,618.696h3.237c3.809,0,6.825-1.312,9.045-3.933&#xA;&#x9;&#x9;c2.223-2.621,3.333-6.528,3.333-11.724c0-2.298-0.212-4.354-0.634-6.179c-0.422-1.821-1.144-3.357-2.158-4.605&#xA;&#x9;&#x9;c-1.016-1.248-2.371-2.211-4.064-2.886s-3.787-1.01-6.283-1.01h-2.476V618.696L479.078,618.696z"></path>
&#x9;<path fill="#0E4877" d="M525.987,604.015c0-3.296,0.541-6.354,1.617-9.176c1.079-2.821,2.592-5.268,4.538-7.339&#xA;&#x9;&#x9;s4.265-3.684,6.953-4.832c2.685-1.149,5.638-1.723,8.854-1.723c2.624,0,4.929,0.276,6.921,0.823&#xA;&#x9;&#x9;c1.987,0.55,3.724,1.149,5.205,1.798c1.48,0.648,2.752,1.248,3.808,1.798c1.059,0.55,1.989,0.823,2.793,0.823&#xA;&#x9;&#x9;c1.059,0,1.885-0.55,2.476-1.646c0.593-1.097,0.887-2.295,0.887-3.596h2.476v25.617h-2.476c-0.762-2.845-1.801-5.541-3.112-8.09&#xA;&#x9;&#x9;c-1.312-2.545-2.837-4.756-4.57-6.63c-1.733-1.873-3.691-3.356-5.87-4.457c-2.18-1.097-4.519-1.646-7.015-1.646&#xA;&#x9;&#x9;c-3.599,0-6.295,0.949-8.093,2.846c-1.801,1.899-2.699,4.419-2.699,7.566c0,2.146,0.55,3.956,1.649,5.432&#xA;&#x9;&#x9;c1.1,1.475,2.539,2.746,4.316,3.819s3.788,2.06,6.031,2.958c2.242,0.899,4.541,1.862,6.889,2.884&#xA;&#x9;&#x9;c2.351,1.023,4.634,2.173,6.856,3.444c2.223,1.273,4.181,2.859,5.873,4.756c1.185,1.301,2.127,2.609,2.825,3.934&#xA;&#x9;&#x9;c0.698,1.323,1.236,2.635,1.617,3.933s0.626,2.583,0.73,3.857s0.16,2.534,0.16,3.785c0,3.345-0.53,6.455-1.589,9.326&#xA;&#x9;&#x9;s-2.624,5.355-4.695,7.453c-2.074,2.098-4.625,3.744-7.65,4.942s-6.528,1.798-10.508,1.798c-2.665,0-4.972-0.25-6.918-0.75&#xA;&#x9;&#x9;c-1.946-0.501-3.64-1.048-5.079-1.647c-1.44-0.599-2.677-1.148-3.715-1.646c-1.039-0.5-1.999-0.75-2.889-0.75&#xA;&#x9;&#x9;c-1.06,0-1.905,0.398-2.54,1.198c-0.634,0.8-1.248,1.999-1.842,3.596h-2.35v-28.238h2.476c0.718,3.546,1.766,6.74,3.145,9.588&#xA;&#x9;&#x9;c1.373,2.846,3.025,5.269,4.951,7.268c1.926,1.998,4.093,3.546,6.508,4.646c2.411,1.1,5.035,1.646,7.872,1.646&#xA;&#x9;&#x9;c4.017,0,6.908-0.937,8.663-2.808c1.754-1.873,2.633-4.308,2.633-7.305c0-2.396-0.519-4.407-1.554-6.03&#xA;&#x9;&#x9;c-1.039-1.623-2.403-3.034-4.096-4.232c-1.693-1.199-3.616-2.261-5.777-3.186c-2.156-0.923-4.37-1.886-6.633-2.883&#xA;&#x9;&#x9;c-2.267-0.998-4.478-2.098-6.633-3.296c-2.159-1.199-4.085-2.671-5.777-4.419c-1.693-1.749-3.058-3.846-4.094-6.293&#xA;&#x9;&#x9;C526.505,610.481,525.987,607.512,525.987,604.015z"></path>
&#x9;<path fill="#0E4877" d="M703.485,626.03l-3.107,30.418h-73.309v-2.365h2.74c2.395,0,4.323-0.448,5.786-1.341&#xA;&#x9;&#x9;c1.056-0.597,1.867-1.618,2.435-3.066c0.448-1.021,0.673-3.706,0.673-8.053V584.62c0-4.431-0.225-7.2-0.673-8.309&#xA;&#x9;&#x9;c-0.444-1.108-1.35-2.077-2.711-2.909c-1.361-0.829-3.194-1.245-5.51-1.245h-2.74v-2.362h44.023v2.365H667.5&#xA;&#x9;&#x9;c-2.395,0-4.323,0.448-5.786,1.341c-1.057,0.597-1.889,1.62-2.496,3.066c-0.445,1.021-0.672,3.706-0.672,8.053v55.211&#xA;&#x9;&#x9;c0,4.434,0.244,7.256,0.729,8.469c0.486,1.213,1.443,2.12,2.863,2.717c1.015,0.384,3.47,0.576,7.365,0.576h6.88&#xA;&#x9;&#x9;c4.384,0,8.038-0.809,10.962-2.426c2.924-1.618,5.448-4.175,7.581-7.669c2.129-3.494,4.151-8.648,6.057-15.465h2.502V626.03z"></path>
&#x9;<path fill="#0E4877" d="M899.575,585.44c-0.884,0.147-1.769,0.436-2.656,0.86c-0.884,0.425-1.76,1.074-2.618,1.946&#xA;&#x9;&#x9;c-0.863,0.876-1.713,1.999-2.551,3.372s-1.655,3.083-2.447,5.132l-23.476,61.722h-2.724l-16.279-46.365l-18.513,46.365h-2.727&#xA;&#x9;&#x9;l-25.151-67.191c-0.745-2.048-1.699-3.508-2.863-4.381c-1.163-0.873-2.492-1.361-3.982-1.46v-2.621h32.769v2.621&#xA;&#x9;&#x9;c-2.33,0-3.96,0.25-4.891,0.747c-0.931,0.501-1.396,1.373-1.396,2.621c0,0.85,0.14,1.848,0.419,2.996&#xA;&#x9;&#x9;c0.279,1.149,0.745,2.599,1.396,4.344l12.576,33.332l9.641-24.271l-4.053-10.859c-0.651-1.798-1.268-3.284-1.853-4.457&#xA;&#x9;&#x9;c-0.582-1.172-1.222-2.086-1.92-2.734s-1.489-1.1-2.377-1.347c-0.884-0.25-1.981-0.375-3.284-0.375v-2.621h35.494v2.621&#xA;&#x9;&#x9;c-2.933,0-4.96,0.287-6.077,0.86c-1.117,0.576-1.676,1.411-1.676,2.511c0,0.6,0.104,1.347,0.314,2.246&#xA;&#x9;&#x9;c0.209,0.898,0.593,2.146,1.151,3.744l11.875,33.408l11.599-30.787c0.559-1.449,0.954-2.796,1.187-4.044&#xA;&#x9;&#x9;c0.233-1.248,0.35-2.371,0.35-3.372c0-1.547-0.733-2.696-2.199-3.444c-1.467-0.747-3.343-1.122-5.626-1.122v-2.621h22.568V585.44&#xA;&#x9;&#x9;L899.575,585.44z"></path>
&#x9;<path fill="#0E4877" d="M979.822,574.784v35.593h2.409c3.703,0,6.729-0.576,9.076-1.726c2.345-1.148,4.329-3.089,5.955-5.815&#xA;&#x9;&#x9;c1.626-2.726,2.685-6.411,3.18-11.054h2.158v43.517h-2.158c-0.783-8.221-2.912-13.644-6.392-16.265&#xA;&#x9;&#x9;c-3.479-2.618-7.418-3.93-11.819-3.93h-2.409v26.519c0,4.431,0.236,7.2,0.71,8.309c0.472,1.108,1.396,2.077,2.778,2.906&#xA;&#x9;&#x9;s3.24,1.245,5.588,1.245h2.778v2.365h-43.765v-2.365h2.778c2.43,0,4.384-0.448,5.865-1.341c1.07-0.597,1.894-1.618,2.47-3.066&#xA;&#x9;&#x9;c0.453-1.021,0.681-3.706,0.681-8.053v-57c0-4.431-0.228-7.2-0.681-8.309c-0.454-1.108-1.367-2.077-2.746-2.909&#xA;&#x9;&#x9;c-1.379-0.829-3.241-1.245-5.589-1.245h-2.778v-2.362h70.619v24.858H1016c-0.579-5.836-2.048-10.162-4.416-12.972&#xA;&#x9;&#x9;c-2.368-2.813-5.792-4.791-10.278-5.943c-2.47-0.64-7.034-0.96-13.701-0.96h-7.782V574.784z"></path>
&#x9;<path fill="#0E4877" d="M1070.743,656.448h-34.915v-2.621c1.693,0,3.102-0.113,4.222-0.338c1.12-0.224,2.021-0.687,2.699-1.385&#xA;&#x9;&#x9;s1.164-1.698,1.46-2.996c0.297-1.298,0.445-2.996,0.445-5.094V595.4c0-2.245-0.16-4.02-0.477-5.317&#xA;&#x9;&#x9;c-0.317-1.298-0.835-2.295-1.557-2.996c-0.719-0.698-1.641-1.149-2.761-1.348c-1.123-0.197-2.467-0.299-4.032-0.299v-2.621h34.915&#xA;&#x9;&#x9;v2.621c-1.652,0-3.037,0.102-4.16,0.299c-1.12,0.201-2.03,0.649-2.729,1.348c-0.698,0.701-1.195,1.698-1.492,2.996&#xA;&#x9;&#x9;c-0.297,1.3-0.445,3.072-0.445,5.317v48.614c0,2.098,0.128,3.782,0.382,5.056c0.253,1.274,0.718,2.261,1.396,2.959&#xA;&#x9;&#x9;c0.679,0.698,1.586,1.172,2.732,1.422c1.14,0.251,2.58,0.376,4.316,0.376V656.448L1070.743,656.448z"></path>
&#x9;<path fill="#0E4877" d="M1112.681,643.866c0,2.146,0.148,3.857,0.445,5.132c0.294,1.274,0.791,2.248,1.492,2.921&#xA;&#x9;&#x9;c0.698,0.675,1.629,1.134,2.793,1.388c1.163,0.25,2.633,0.424,4.41,0.523v2.621h-35.102v-2.621c1.69,0,3.087-0.137,4.189-0.413&#xA;&#x9;&#x9;c1.1-0.273,1.989-0.774,2.668-1.498c0.675-0.722,1.151-1.723,1.428-2.997c0.276-1.273,0.413-2.909,0.413-4.904v-49.815&#xA;&#x9;&#x9;c0-1.646-0.116-3.022-0.349-4.119c-0.233-1.097-0.689-1.996-1.367-2.697c-0.678-0.697-1.598-1.198-2.761-1.498&#xA;&#x9;&#x9;c-1.164-0.3-2.677-0.447-4.538-0.447v-2.621h37.905c4.698,0,8.738,0.474,12.125,1.422c3.386,0.948,6.188,2.299,8.41,4.044&#xA;&#x9;&#x9;c2.22,1.748,3.86,3.857,4.919,6.33c1.06,2.473,1.589,5.23,1.589,8.276c0,4.494-1.239,8.189-3.715,11.087&#xA;&#x9;&#x9;c-2.477,2.897-5.958,5.192-10.444,6.892l14.601,24.57c3.343,5.442,6.665,8.238,9.967,8.39v2.621h-24.567l-17.646-32.059h-6.865&#xA;&#x9;&#x9;V643.866L1112.681,643.866z M1112.681,618.848h6.167c2.706,0,4.98-0.447,6.825-1.347c1.842-0.898,3.322-2.098,4.442-3.596&#xA;&#x9;&#x9;s1.914-3.209,2.379-5.132c0.466-1.923,0.698-3.883,0.698-5.879c0-4.643-1.151-8.227-3.458-10.749&#xA;&#x9;&#x9;c-2.308-2.522-5.979-3.782-11.015-3.782h-6.039V618.848z"></path>
&#x9;<path fill="#0E4877" d="M1237.144,582.819h28.312v2.621c-1.734,0-3.174,0.125-4.317,0.375s-2.054,0.698-2.731,1.347&#xA;&#x9;&#x9;s-1.164,1.56-1.461,2.734c-0.297,1.176-0.442,2.659-0.442,4.457v49.661c0,2.196,0.148,3.944,0.442,5.242&#xA;&#x9;&#x9;c0.297,1.3,0.771,2.286,1.429,2.958c0.654,0.676,1.513,1.111,2.568,1.312c1.06,0.201,2.351,0.3,3.872,0.3v2.621h-34.976v-2.621&#xA;&#x9;&#x9;c1.902,0,3.458-0.137,4.666-0.413c1.204-0.273,2.146-0.774,2.824-1.498c0.678-0.722,1.144-1.723,1.399-2.997&#xA;&#x9;&#x9;c0.253-1.273,0.378-2.909,0.378-4.904v-52.882h-0.253l-26.926,65.315h-2.223l-26.718-62.095h-0.378v48.913&#xA;&#x9;&#x9;c0,3.846,0.803,6.569,2.412,8.166c1.608,1.598,4.063,2.397,7.362,2.397v2.621h-22.598v-2.621c2.921,0,5.079-0.85,6.476-2.549&#xA;&#x9;&#x9;c1.394-1.698,2.095-4.468,2.095-8.313v-47.564c0-1.847-0.116-3.395-0.349-4.643c-0.233-1.248-0.689-2.272-1.367-3.072&#xA;&#x9;&#x9;c-0.679-0.797-1.598-1.373-2.762-1.722c-1.163-0.35-2.676-0.523-4.538-0.523v-2.621h28.251l19.924,44.043L1237.144,582.819z"></path>
&#x9;<path fill="#0E4877" d="M390.609,656.448h-61.961v-2.621c1.777,0,3.271-0.163,4.478-0.489c1.204-0.325,2.158-0.872,2.856-1.649&#xA;&#x9;&#x9;c0.698-0.773,1.195-1.798,1.492-3.071c0.297-1.274,0.445-2.857,0.445-4.757V595.4c0-2.298-0.181-4.107-0.541-5.431&#xA;&#x9;&#x9;c-0.36-1.321-0.919-2.321-1.682-2.997c-0.762-0.675-1.736-1.097-2.921-1.273c-1.184-0.175-2.604-0.262-4.253-0.262v-2.621h37.833&#xA;&#x9;&#x9;v2.621c-2.243,0-4.084,0.102-5.521,0.299c-1.44,0.201-2.58,0.638-3.427,1.312s-1.429,1.673-1.746,2.996&#xA;&#x9;&#x9;c-0.316,1.324-0.477,3.11-0.477,5.355v49.513c0,2.397,0.454,3.994,1.364,4.795c0.911,0.8,2.443,1.198,4.603,1.198h8.576&#xA;&#x9;&#x9;c3.214,0,5.986-0.55,8.316-1.649c2.327-1.097,4.326-2.595,5.999-4.495c1.673-1.896,3.046-4.119,4.128-6.664&#xA;&#x9;&#x9;c1.079-2.546,1.978-5.269,2.696-8.166h2.476L390.609,656.448z"></path>
&#x9;<g>
&#x9;&#x9;<path fill="#858585" d="M570.9,710.089v-24.564h6.746c2.555,0,4.221,0.122,4.998,0.369c1.192,0.37,2.19,1.17,2.996,2.403&#xA;&#x9;&#x9;&#x9;c0.803,1.236,1.207,2.83,1.207,4.782c0,1.507-0.232,2.775-0.695,3.806c-0.462,1.026-1.053,1.835-1.769,2.42&#xA;&#x9;&#x9;&#x9;c-0.716,0.588-1.439,0.975-2.179,1.164c-1.004,0.235-2.455,0.352-4.357,0.352h-2.74v9.266H570.9V710.089z M575.104,689.679v6.97&#xA;&#x9;&#x9;&#x9;h2.299c1.658,0,2.764-0.128,3.322-0.387c0.559-0.256,0.994-0.657,1.314-1.207c0.317-0.547,0.478-1.185,0.478-1.908&#xA;&#x9;&#x9;&#x9;c0-0.894-0.225-1.629-0.666-2.214c-0.445-0.582-1.01-0.942-1.69-1.088c-0.504-0.111-1.51-0.169-3.025-0.169h-2.031V689.679z"></path>
&#x9;&#x9;<path fill="#858585" d="M667.063,710.089v-24.364h4.203v20.225h12.504v4.14H667.063z"></path>
&#x9;&#x9;<path fill="#858585" d="M729.373,701.056l4.521,1.524c-0.695,2.68-1.847,4.672-3.459,5.973c-1.611,1.301-3.656,1.952-6.135,1.952&#xA;&#x9;&#x9;&#x9;c-3.063,0-5.583-1.114-7.558-3.343c-1.973-2.229-2.959-5.274-2.959-9.141c0-4.087,0.992-7.264,2.973-9.524&#xA;&#x9;&#x9;&#x9;c1.987-2.26,4.597-3.392,7.829-3.392c2.821,0,5.117,0.888,6.88,2.665c1.047,1.05,1.836,2.557,2.362,4.523l-4.614,1.172&#xA;&#x9;&#x9;&#x9;c-0.273-1.273-0.844-2.277-1.707-3.017c-0.867-0.735-1.918-1.105-3.156-1.105c-1.711,0-3.102,0.655-4.163,1.961&#xA;&#x9;&#x9;&#x9;c-1.068,1.307-1.601,3.424-1.601,6.351c0,3.104,0.527,5.317,1.574,6.633c1.05,1.317,2.414,1.979,4.096,1.979&#xA;&#x9;&#x9;&#x9;c1.239,0,2.301-0.419,3.194-1.257S728.98,702.854,729.373,701.056z"></path>
&#x9;</g>
&#x9;<path fill="#858585" d="M619.828,710.089v-24.364h4.204v20.225h12.503v4.14H619.828z"></path>
&#x9;<polygon fill="#AEAEB1" points="764.803,697.807 771.305,693.81 1122.938,693.81 1112.681,702.261 771.25,702.261 &#x9;"></polygon>
&#x9;<polygon fill="#AEAEB1" points="539.997,697.807 533.495,693.81 181.862,693.81 192.119,702.261 533.551,702.261 &#x9;"></polygon>
</g>
</svg>